<mxfile host="app.diagrams.net" modified="2021-05-03T02:59:22.574Z" agent="5.0 (Macintosh; Intel Mac OS X 10_15_6) AppleWebKit/537.36 (KHTML, like Gecko) Chrome/89.0.4389.128 Safari/537.36" etag="fkCD97SdyVQLZzSb04cB" version="14.6.1" type="github">
  <diagram id="JN4TLlAed92NFkzy89l-" name="第 1 页">
    <mxGraphModel dx="1426" dy="826" grid="1" gridSize="10" guides="1" tooltips="1" connect="1" arrows="1" fold="1" page="1" pageScale="1" pageWidth="827" pageHeight="1169" math="0" shadow="0">
      <root>
        <mxCell id="0" />
        <mxCell id="1" parent="0" />
        <mxCell id="9OEdflbsE8px-Ng1BYoB-1" value="用户" style="ellipse;whiteSpace=wrap;html=1;aspect=fixed;strokeWidth=2;fontSize=15;" vertex="1" parent="1">
          <mxGeometry x="120" y="370" width="80" height="80" as="geometry" />
        </mxCell>
        <mxCell id="9OEdflbsE8px-Ng1BYoB-2" value="角色" style="ellipse;whiteSpace=wrap;html=1;aspect=fixed;strokeWidth=2;fontSize=15;" vertex="1" parent="1">
          <mxGeometry x="374" y="370" width="80" height="80" as="geometry" />
        </mxCell>
        <mxCell id="9OEdflbsE8px-Ng1BYoB-3" value="权限" style="ellipse;whiteSpace=wrap;html=1;aspect=fixed;strokeWidth=2;fontSize=15;" vertex="1" parent="1">
          <mxGeometry x="630" y="370" width="80" height="80" as="geometry" />
        </mxCell>
        <mxCell id="9OEdflbsE8px-Ng1BYoB-4" value="" style="endArrow=classic;startArrow=classic;html=1;fontSize=15;strokeWidth=2;entryX=0;entryY=0.5;entryDx=0;entryDy=0;exitX=1;exitY=0.5;exitDx=0;exitDy=0;" edge="1" parent="1" source="9OEdflbsE8px-Ng1BYoB-1" target="9OEdflbsE8px-Ng1BYoB-2">
          <mxGeometry width="50" height="50" relative="1" as="geometry">
            <mxPoint x="320" y="300" as="sourcePoint" />
            <mxPoint x="370" y="250" as="targetPoint" />
          </mxGeometry>
        </mxCell>
        <mxCell id="9OEdflbsE8px-Ng1BYoB-5" value="" style="endArrow=classic;startArrow=classic;html=1;fontSize=15;strokeWidth=2;exitX=1;exitY=0.5;exitDx=0;exitDy=0;entryX=0;entryY=0.5;entryDx=0;entryDy=0;" edge="1" parent="1" source="9OEdflbsE8px-Ng1BYoB-2" target="9OEdflbsE8px-Ng1BYoB-3">
          <mxGeometry width="50" height="50" relative="1" as="geometry">
            <mxPoint x="530" y="330" as="sourcePoint" />
            <mxPoint x="580" y="280" as="targetPoint" />
          </mxGeometry>
        </mxCell>
        <mxCell id="9OEdflbsE8px-Ng1BYoB-6" value="" style="endArrow=classic;startArrow=classic;html=1;fontSize=15;strokeWidth=2;exitX=0.5;exitY=0;exitDx=0;exitDy=0;entryX=0.5;entryY=0;entryDx=0;entryDy=0;curved=1;" edge="1" parent="1" source="9OEdflbsE8px-Ng1BYoB-1" target="9OEdflbsE8px-Ng1BYoB-2">
          <mxGeometry width="50" height="50" relative="1" as="geometry">
            <mxPoint x="220" y="260" as="sourcePoint" />
            <mxPoint x="270" y="210" as="targetPoint" />
            <Array as="points">
              <mxPoint x="290" y="200" />
            </Array>
          </mxGeometry>
        </mxCell>
        <mxCell id="9OEdflbsE8px-Ng1BYoB-7" value="" style="endArrow=classic;startArrow=classic;html=1;fontSize=15;strokeWidth=2;exitX=0.5;exitY=0;exitDx=0;exitDy=0;entryX=0.5;entryY=0;entryDx=0;entryDy=0;curved=1;" edge="1" parent="1" source="9OEdflbsE8px-Ng1BYoB-2" target="9OEdflbsE8px-Ng1BYoB-3">
          <mxGeometry width="50" height="50" relative="1" as="geometry">
            <mxPoint x="450" y="220" as="sourcePoint" />
            <mxPoint x="704" y="220" as="targetPoint" />
            <Array as="points">
              <mxPoint x="540" y="200" />
            </Array>
          </mxGeometry>
        </mxCell>
        <mxCell id="9OEdflbsE8px-Ng1BYoB-8" value="用户角色关系" style="text;html=1;align=center;verticalAlign=middle;resizable=0;points=[];autosize=1;strokeColor=none;fontSize=15;" vertex="1" parent="1">
          <mxGeometry x="230" y="260" width="110" height="20" as="geometry" />
        </mxCell>
        <mxCell id="9OEdflbsE8px-Ng1BYoB-9" value="角色权限关系" style="text;html=1;align=center;verticalAlign=middle;resizable=0;points=[];autosize=1;strokeColor=none;fontSize=15;" vertex="1" parent="1">
          <mxGeometry x="490" y="260" width="110" height="20" as="geometry" />
        </mxCell>
      </root>
    </mxGraphModel>
  </diagram>
</mxfile>
